<svg width="500" height="300" viewBox="0 0 500 300" fill="none" xmlns="http://www.w3.org/2000/svg">
<rect width="500" height="300" rx="20" fill="#222222"/>
<path d="M113.857 158.508C113.857 163.244 112.171 166.593 108.801 168.556C105.473 170.519 101.078 171.5 95.6165 171.5H80.8965V127.148H94.9765C100.054 127.148 104.15 128.044 107.265 129.836C110.379 131.585 111.937 134.465 111.937 138.476C111.937 140.993 111.169 143.063 109.632 144.684C108.097 146.305 106.155 147.415 103.809 148.012C106.625 148.481 108.993 149.548 110.913 151.212C112.875 152.833 113.857 155.265 113.857 158.508ZM101.377 139.564C101.377 137.815 100.822 136.556 99.7125 135.788C98.6458 134.977 96.9392 134.572 94.5925 134.572H91.3925V144.876H94.9765C97.1952 144.876 98.8165 144.471 99.8405 143.66C100.865 142.807 101.377 141.441 101.377 139.564ZM103.041 158.06C103.041 155.841 102.401 154.263 101.121 153.324C99.8832 152.385 98.0698 151.916 95.6805 151.916H91.3925V163.82H95.2325C97.6645 163.82 99.5632 163.415 100.929 162.604C102.337 161.793 103.041 160.279 103.041 158.06ZM146.088 136.492C148.136 136.492 150.013 136.833 151.72 137.516L149.864 151.724H143.464V145.452C141.586 145.793 139.922 146.817 138.472 148.524C137.021 150.231 135.89 152.385 135.08 154.988V164.716H141.8V171.5H120.488V164.716H124.968V144.236H120.488V137.516H132.712L134.503 145.132C135.741 142.231 137.298 140.076 139.176 138.668C141.053 137.217 143.357 136.492 146.088 136.492ZM173.199 119.724C174.948 119.724 176.377 120.279 177.487 121.388C178.596 122.455 179.151 123.799 179.151 125.42C179.151 127.084 178.596 128.449 177.487 129.516C176.377 130.583 174.948 131.116 173.199 131.116C171.449 131.116 169.999 130.583 168.847 129.516C167.737 128.407 167.183 127.041 167.183 125.42C167.183 123.799 167.737 122.455 168.847 121.388C169.999 120.279 171.449 119.724 173.199 119.724ZM179.279 164.588H187.983V171.5H159.567V164.588H169.167V144.428H159.887V137.516H179.279V164.588ZM225.526 161.708C225.526 162.945 225.696 163.863 226.038 164.46C226.379 165.057 226.955 165.505 227.766 165.804L225.654 172.46C223.606 172.247 221.899 171.799 220.534 171.116C219.168 170.391 218.102 169.345 217.334 167.98C216.054 169.473 214.432 170.625 212.47 171.436C210.507 172.204 208.416 172.588 206.198 172.588C202.699 172.588 199.904 171.607 197.814 169.644C195.723 167.639 194.678 165.057 194.678 161.9C194.678 158.231 196.128 155.393 199.03 153.388C201.931 151.34 206.006 150.316 211.253 150.316H215.798V149.1C215.798 145.601 213.558 143.852 209.078 143.852C207.926 143.852 206.475 144.023 204.726 144.364C203.019 144.663 201.355 145.089 199.734 145.644L197.43 138.924C199.606 138.113 201.867 137.495 204.214 137.068C206.603 136.599 208.758 136.364 210.678 136.364C220.576 136.364 225.526 140.375 225.526 148.396V161.708ZM209.654 165.356C210.806 165.356 211.958 165.036 213.11 164.396C214.304 163.713 215.2 162.796 215.798 161.644V156.076H213.302C207.84 156.076 205.11 157.783 205.11 161.196C205.11 162.519 205.494 163.543 206.262 164.268C207.072 164.993 208.203 165.356 209.654 165.356ZM235.293 137.516H244.125L244.829 141.42C246.365 139.713 247.965 138.455 249.628 137.644C251.335 136.791 253.255 136.364 255.389 136.364C258.333 136.364 260.615 137.26 262.237 139.052C263.901 140.844 264.733 143.34 264.733 146.54V171.5H254.621V149.484C254.621 147.351 254.386 145.879 253.917 145.068C253.447 144.257 252.594 143.852 251.357 143.852C250.333 143.852 249.33 144.193 248.349 144.876C247.41 145.516 246.429 146.476 245.405 147.756V171.5H235.293V137.516ZM313.515 127.148H324.01V163.18H343.211L342.187 171.5H313.515V127.148ZM379.026 161.708C379.026 162.945 379.196 163.863 379.538 164.46C379.879 165.057 380.455 165.505 381.266 165.804L379.154 172.46C377.106 172.247 375.399 171.799 374.034 171.116C372.668 170.391 371.602 169.345 370.834 167.98C369.554 169.473 367.932 170.625 365.97 171.436C364.007 172.204 361.916 172.588 359.698 172.588C356.199 172.588 353.404 171.607 351.314 169.644C349.223 167.639 348.178 165.057 348.178 161.9C348.178 158.231 349.628 155.393 352.53 153.388C355.431 151.34 359.506 150.316 364.753 150.316H369.298V149.1C369.298 145.601 367.058 143.852 362.578 143.852C361.426 143.852 359.975 144.023 358.226 144.364C356.519 144.663 354.855 145.089 353.234 145.644L350.93 138.924C353.106 138.113 355.367 137.495 357.714 137.068C360.103 136.599 362.258 136.364 364.178 136.364C374.076 136.364 379.026 140.375 379.026 148.396V161.708ZM363.154 165.356C364.306 165.356 365.458 165.036 366.61 164.396C367.804 163.713 368.7 162.796 369.298 161.644V156.076H366.802C361.34 156.076 358.61 157.783 358.61 161.196C358.61 162.519 358.994 163.543 359.762 164.268C360.572 164.993 361.703 165.356 363.154 165.356ZM406.521 171.5L403.577 148.652L400.505 171.5H389.561L384.505 137.516H393.785L396.025 165.164L399.545 141.804H408.121L411.257 165.164L413.561 137.516H422.521L417.657 171.5H406.521Z" fill="url(#paint0_linear_2_2)"/>
<defs>
<linearGradient id="paint0_linear_2_2" x1="250" y1="111.5" x2="250" y2="188.5" gradientUnits="userSpaceOnUse">
<stop stop-color="#88FF88"/>
<stop offset="1" stop-color="#8888FF"/>
</linearGradient>
</defs>
</svg>
